<?xml version="1.0" encoding="UTF-8" standalone="no"?>
<!-- Created with Inkscape (http://www.inkscape.org/) -->

<svg
   version="1.1"
   id="svg2"
   xml:space="preserve"
   width="100%"
   height="100%"
   viewBox="2385 3300 2000 3200"
   xmlns:inkscape="http://www.inkscape.org/namespaces/inkscape"
   xmlns="http://www.w3.org/2000/svg"
   xmlns:svg="http://www.w3.org/2000/svg"><defs
     id="defs6" /><g
     id="g8"
     inkscape:groupmode="layer"
     inkscape:label="ink_ext_XXXXXX"
     transform="matrix(1.3333333,0,0,-1.3333333,0,6666.6667)"><g
       id="g10"
       transform="scale(0.1)"><path
         d="M 0,0 H 50000 V 50000 H 0 Z"
         style="fill:#F3F4F6;fill-opacity:1;fill-rule:nonzero;stroke:none"
         id="path12" /><path
         d="m 10684,25723.5 c -1144.06,0 -2000.41,74.3 -2639.09,178.7 l -0.4,0.1 c -17.85,2.9 -35.52,5.8 -53.05,8.8 -2.61,0.5 -5.17,0.9 -7.78,1.4 -14.97,2.5 -29.85,5.1 -44.57,7.6 -4.08,0.8 -8.1,1.5 -12.16,2.2 -13.17,2.3 -26.28,4.7 -39.24,7 -4.83,0.9 -9.57,1.8 -14.37,2.6 -12.13,2.3 -24.23,4.5 -36.19,6.7 -5.14,1 -10.21,2 -15.32,2.9 -11.44,2.2 -22.85,4.4 -34.12,6.6 -5.43,1 -10.77,2.1 -16.16,3.1 -10.86,2.1 -21.68,4.3 -32.39,6.4 -5.51,1.1 -10.95,2.2 -16.41,3.3 -10.44,2.1 -20.84,4.2 -31.13,6.4 -5.6,1.1 -11.15,2.3 -16.71,3.4 -10,2.1 -19.96,4.2 -29.83,6.3 -5.63,1.2 -11.23,2.4 -16.82,3.6 -9.64,2.1 -19.25,4.2 -28.75,6.3 -5.64,1.2 -11.22,2.5 -16.79,3.7 -9.39,2.1 -18.74,4.2 -28,6.3 -5.51,1.2 -10.98,2.5 -16.45,3.7 -9.15,2.1 -18.25,4.2 -27.27,6.3 -5.46,1.3 -10.88,2.5 -16.3,3.8 -8.9,2.1 -17.73,4.2 -26.51,6.3 -5.37,1.3 -10.71,2.6 -16.03,3.9 -8.68,2.1 -17.29,4.2 -25.85,6.3 -5.28,1.3 -10.55,2.6 -15.78,4 -8.52,2.1 -16.95,4.2 -25.35,6.3 -5.07,1.3 -10.13,2.6 -15.17,3.9 -8.41,2.2 -16.76,4.3 -25.06,6.5 -4.89,1.3 -9.79,2.6 -14.63,3.9 -8.25,2.1 -16.41,4.3 -24.55,6.5 -4.81,1.3 -9.62,2.6 -14.39,3.9 -8.05,2.2 -16.02,4.4 -23.97,6.6 -4.63,1.3 -9.28,2.5 -13.86,3.8 -8.04,2.3 -15.97,4.5 -23.88,6.8 -4.38,1.2 -8.78,2.4 -13.12,3.7 -7.89,2.3 -15.67,4.5 -23.43,6.8 -4.29,1.2 -8.6,2.5 -12.86,3.7 -7.71,2.3 -15.3,4.6 -22.9,6.9 -4.13,1.2 -8.3,2.5 -12.39,3.7 -7.61,2.3 -15.1,4.6 -22.57,6.9 -3.98,1.2 -8,2.5 -11.96,3.7 -7.47,2.3 -14.83,4.6 -22.19,7 -3.8,1.2 -7.66,2.4 -11.44,3.6 -7.5,2.4 -14.86,4.8 -22.23,7.2 -3.49,1.1 -7.05,2.2 -10.51,3.4 -7.54,2.4 -14.94,4.9 -22.33,7.4 -3.22,1.1 -6.5,2.1 -9.7,3.2 -7.53,2.6 -14.92,5.1 -22.32,7.6 -2.94,1 -5.95,2 -8.88,3 -8.02,2.8 -15.89,5.6 -23.75,8.3 -2.18,0.8 -4.42,1.6 -6.6,2.3 -10,3.6 -19.86,7.1 -29.6,10.7 -50.37,18.3 -98.74,40.1 -144.81,65.2 -12.74,6.9 -25.25,14.2 -37.65,21.6 -3.56,2.2 -7.09,4.3 -10.62,6.5 -9.69,6 -19.27,12.1 -28.74,18.4 -2.83,1.8 -5.7,3.6 -8.52,5.5 -11.8,8 -23.44,16.2 -34.89,24.6 -2.56,1.9 -5.06,3.9 -7.61,5.8 -9.23,6.9 -18.33,14 -27.32,21.2 -3.09,2.4 -6.18,4.9 -9.24,7.4 -10.99,9 -21.84,18.2 -32.43,27.6 l -0.21,0.2 c -10.8,9.6 -21.33,19.5 -31.71,29.6 -2.6,2.5 -5.17,5.1 -7.75,7.6 -8.43,8.3 -16.73,16.8 -24.88,25.4 -1.94,2.1 -3.92,4.1 -5.83,6.1 -9.87,10.6 -19.52,21.4 -28.93,32.4 l -1.25,1.3 c -2.43,2.8 -4.82,5.7 -7.2,8.5 -3.58,4.3 -7.15,8.7 -10.67,13 h -0.03 c -0.93,1.2 -1.8,2.3 -2.7,3.5 -5.12,6.4 -10.2,12.8 -15.2,19.3 l -1.36,1.8 c -1.47,1.9 -2.93,3.9 -4.38,5.8 l -0.17,0.2 c -3.33,4.4 -6.58,8.8 -9.8,13.2 -2.08,2.8 -4.04,5.6 -6.07,8.4 l -1.15,1.7 c -0.78,1 -1.53,2.2 -2.3,3.3 -2.23,3.1 -4.47,6.3 -6.65,9.5 -2.13,3.1 -4.19,6.1 -6.27,9.2 l -0.99,1.6 c -8.35,12.4 -16.46,25.1 -24.27,37.9 -0.95,1.5 -1.85,3.1 -2.79,4.7 -6.77,11.2 -13.31,22.5 -19.67,34 -0.81,1.5 -1.7,2.9 -2.5,4.3 -1.55,2.8 -3.05,5.6 -4.51,8.4 l -0.51,0.9 c -1.44,2.7 -2.85,5.4 -4.27,8.1 -1.84,3.5 -3.64,7 -5.43,10.5 -1.26,2.5 -2.46,5 -3.72,7.5 -2.16,4.3 -4.31,8.6 -6.43,13 -0.7,1.5 -1.44,2.9 -2.13,4.3 -1.09,2.3 -2.13,4.6 -3.16,6.8 -1.52,3.2 -2.97,6.4 -4.44,9.6 -1.45,3.2 -2.91,6.4 -4.34,9.6 -1.66,3.8 -3.33,7.5 -4.96,11.2 -1.95,4.5 -3.85,9.1 -5.73,13.7 -4.88,11.7 -9.56,23.6 -14.02,35.5 l -0.41,1.1 c -1.65,4.5 -3.32,9 -4.92,13.6 -1.29,3.6 -2.52,7.3 -3.77,10.9 -0.89,2.6 -1.8,5.1 -2.66,7.7 l -0.2,0.6 c -1.41,4.2 -2.81,8.4 -4.15,12.6 l -0.77,2.4 c -1.37,4.3 -2.68,8.6 -4,12.9 -0.62,2.1 -1.24,4.2 -1.86,6.3 -1.32,4.4 -2.64,8.7 -3.88,13.1 -1.12,4 -2.18,8 -3.23,11.9 -0.83,3 -1.62,6.1 -2.42,9.1 -1.02,3.9 -2.06,7.8 -3.06,11.8 l -0.05,0.3 c -1.02,4 -1.96,8.1 -2.92,12.1 -0.69,3 -1.39,5.9 -2.05,8.8 -0.99,4.3 -1.97,8.6 -2.92,13 -0.93,4.3 -1.79,8.7 -2.67,13.1 -0.38,1.9 -0.8,3.8 -1.17,5.8 l -0.45,2.2 c -0.84,4.3 -1.67,8.7 -2.44,13.1 -0.83,4.6 -1.61,9.2 -2.37,13.8 -0.36,2.2 -0.74,4.5 -1.09,6.7 -0.75,4.7 -1.51,9.4 -2.19,14.1 -0.55,3.8 -1.01,7.5 -1.53,11.3 -0.42,3.1 -0.86,6.2 -1.26,9.3 -1.24,9.9 -2.4,19.8 -3.38,29.7 -0.1,1.2 -0.21,2.5 -0.36,3.8 -1.04,10.9 -1.87,21.9 -2.59,32.9 -0.73,12.1 -1.29,24.2 -1.67,36.3 l -2.21,76.1 v 0.1 l -50.1,1724.8 c -193.17,11 -348.89,168.3 -354.11,365.2 l -58.62,2212.3 c -5.16,194.3 138.14,358.1 326.78,382.7 l -218.71,7531.7 c -123.42,-75.5 -351.08,-110.9 -576.92,-110.9 -230.23,0 -458.57,36.8 -572.31,105.2 -121.17,72.9 -112.32,181.7 162.86,320.3 303.03,152.7 571.94,201.1 791.31,201.1 64.55,0 124.85,-4.2 180.42,-11.2 l -4.69,161.4 c -189.03,15.3 -340.06,170.9 -345.19,364.7 l -58.63,2212.3 c -5.07,191.2 133.68,352.8 317.92,381.3 l -27.39,942.9 c -8.96,308.7 134.44,602.2 383.46,784.8 l 1062.22,779 c 224.14,164.4 494.87,253.1 772.81,253.1 h 5461.66 c 278,0 548.8,-88.7 772.9,-253.1 l 1062.2,-779 c 249,-182.6 392.4,-476.1 383.4,-784.8 l -27.4,-942.9 c 184.3,-28.5 323.1,-190.1 318,-381.3 l -58.6,-2212.3 c -5.2,-193.8 -156.2,-349.5 -345.2,-364.7 l -4.7,-161.4 c 55.5,7 115.8,11.2 180.4,11.2 219.3,0 488.3,-48.4 791.3,-201.1 275.2,-138.6 284,-247.4 162.8,-320.3 -113.7,-68.4 -342,-105.2 -572.3,-105.2 -225.8,0 -453.5,35.4 -576.9,110.9 l -217.4,-7488.5 c 188,-25.2 330.7,-188.6 325.5,-382.5 l -58.6,-2212.3 c -5.2,-196.4 -160.3,-353.6 -352.9,-365.1 l -53.5,-1844.5 c -0.2,-5.3 -0.5,-10.6 -0.8,-15.9 -0.3,-6.8 -0.5,-13.6 -0.9,-20.4 l -0.1,-1.6 c -0.3,-4.6 -0.8,-9.2 -1.1,-13.7 -0.5,-5.9 -0.9,-11.8 -1.4,-17.6 -0.2,-1.3 -0.3,-2.6 -0.4,-3.8 -0.1,-1.3 -0.3,-2.6 -0.4,-3.9 -0.4,-3.6 -0.8,-7.1 -1.2,-10.7 -0.9,-8.4 -2,-16.9 -3.1,-25.3 -0.5,-3.5 -0.9,-7 -1.5,-10.6 -0.8,-5.7 -1.7,-11.4 -2.6,-17.1 -0.8,-5.1 -1.7,-10.1 -2.6,-15.2 -0.5,-2.8 -1,-5.6 -1.6,-8.4 -0.4,-2.3 -0.8,-4.5 -1.2,-6.8 -1.4,-7.1 -2.8,-14.1 -4.3,-21.1 -0.3,-1.1 -0.5,-2.2 -0.7,-3.3 -0.7,-3.1 -1.5,-6.3 -2.2,-9.4 -0.3,-1.5 -0.6,-2.9 -1,-4.3 -1.2,-5.7 -2.6,-11.3 -4,-16.9 l -0.1,-0.3 c -0.4,-2 -1,-3.9 -1.5,-5.9 -0.9,-3.4 -1.8,-6.9 -2.7,-10.4 v -0.2 c -1.4,-5.5 -2.9,-10.9 -4.5,-16.3 -1,-3.7 -2.1,-7.4 -3.3,-11.1 -0.9,-3.2 -1.8,-6.4 -2.8,-9.6 -1.2,-3.8 -2.4,-7.7 -3.6,-11.6 l -0.8,-2.4 c -1.3,-4.2 -2.7,-8.4 -4.1,-12.6 l -0.8,-2.3 c -1.2,-3.6 -2.5,-7.3 -3.8,-10.9 -0.7,-2 -1.3,-4 -2.1,-6 -1.6,-4.6 -3.2,-9.1 -4.9,-13.6 -0.6,-1.6 -1.2,-3.1 -1.8,-4.6 -2.5,-6.7 -5.1,-13.3 -7.8,-19.9 -1.3,-3.3 -2.5,-6.6 -3.9,-9.9 -1.1,-2.8 -2.3,-5.6 -3.5,-8.5 -1,-2.3 -2,-4.6 -3,-7 l -0.1,-0.4 c -2.3,-5.2 -4.6,-10.5 -7,-15.6 -1.8,-4.1 -3.6,-8 -5.5,-12 -1.2,-2.7 -2.5,-5.4 -3.7,-8.1 l -0.7,-1.5 c -4,-8.3 -8.1,-16.6 -12.3,-24.8 l -1.1,-2.1 c -1.5,-2.9 -3,-5.8 -4.6,-8.8 -1.4,-2.9 -3,-5.8 -4.5,-8.6 -1.5,-2.8 -3,-5.6 -4.5,-8.4 -0.7,-1.2 -1.4,-2.3 -2.1,-3.5 -6.5,-11.9 -13.3,-23.6 -20.3,-35.2 -0.8,-1.3 -1.5,-2.6 -2.3,-3.9 -8.1,-13.3 -16.6,-26.5 -25.3,-39.5 l -0.3,-0.4 c -2,-3.1 -4.1,-6.1 -6.2,-9.2 -3.3,-4.9 -6.8,-9.7 -10.1,-14.5 -0.7,-1 -1.4,-1.9 -2.1,-2.9 -1,-1.3 -2,-2.7 -3,-4.1 l -1,-1.4 c -3.2,-4.4 -6.5,-8.8 -9.8,-13.2 -2,-2.6 -3.9,-5.2 -5.9,-7.8 l -1.9,-2.4 c -2.8,-3.6 -5.6,-7.2 -8.4,-10.7 -2.6,-3.2 -5.1,-6.5 -7.6,-9.7 -3.5,-4.3 -7.1,-8.7 -10.7,-13 v 0 l -2,-2.3 c -1.7,-2.1 -3.5,-4.1 -5.2,-6.2 -1.7,-1.9 -3.5,-3.8 -5.3,-5.8 -7.3,-8.4 -14.6,-16.7 -22.2,-24.9 -3.1,-3.3 -6.2,-6.6 -9.3,-9.9 -7.4,-7.8 -15,-15.5 -22.7,-23.1 -2.9,-3 -5.9,-6 -8.9,-8.9 -9.5,-9.2 -19.2,-18.2 -29,-27 -1.2,-1.1 -2.3,-2.2 -3.5,-3.3 -11.2,-10 -22.7,-19.7 -34.3,-29.2 -2.7,-2.2 -5.4,-4.2 -8.1,-6.4 -8.9,-7.1 -17.9,-14.1 -27.1,-21 -3.9,-2.9 -7.8,-5.7 -11.7,-8.6 -8.4,-6 -16.8,-12 -25.3,-17.8 -4.1,-2.8 -8.1,-5.5 -12.2,-8.2 -9.4,-6.3 -18.9,-12.3 -28.5,-18.2 -3.2,-2 -6.3,-4 -9.5,-5.9 -13,-7.9 -26.2,-15.5 -39.6,-22.8 l -0.4,-0.2 c -4.1,-2.2 -8.3,-4.3 -12.5,-6.5 -7.2,-3.8 -14.4,-7.7 -21.7,-11.3 -8.1,-4.1 -16.4,-7.9 -24.6,-11.7 -3.8,-1.8 -7.5,-3.7 -11.4,-5.4 -9.3,-4.2 -18.8,-8.2 -28.3,-12.1 -2.9,-1.2 -5.7,-2.6 -8.6,-3.7 -12.4,-5.1 -25,-9.9 -37.7,-14.5 -8.1,-3 -16.3,-5.9 -24.6,-8.8 -1.5,-0.6 -2.9,-1.1 -4.5,-1.7 -5.6,-2 -11.4,-4 -17.1,-6 -4.4,-1.5 -8.7,-3 -13.2,-4.6 -5.1,-1.7 -10.3,-3.5 -15.4,-5.2 -5.3,-1.8 -10.5,-3.6 -15.8,-5.4 -4.8,-1.6 -9.8,-3.2 -14.7,-4.9 -5.7,-1.9 -11.4,-3.8 -17.2,-5.7 -4.9,-1.6 -9.8,-3.2 -14.7,-4.8 -6,-1.9 -12,-3.9 -18.1,-5.8 -4.9,-1.6 -9.9,-3.1 -14.8,-4.7 -6.3,-2 -12.5,-3.9 -18.8,-5.9 -4.9,-1.5 -9.9,-3.1 -14.9,-4.6 -6.5,-2 -13,-4 -19.6,-6 -5,-1.5 -10,-3 -15.1,-4.5 -6.7,-2 -13.4,-4 -20.2,-6 -5,-1.5 -10.2,-3 -15.3,-4.5 -6.9,-2 -13.9,-4.1 -20.9,-6.1 -5.1,-1.5 -10.3,-2.9 -15.5,-4.4 -7.1,-2 -14.3,-4 -21.5,-6.1 -5.3,-1.5 -10.7,-2.9 -16,-4.4 -7.2,-2 -14.5,-4 -21.8,-6 -5.5,-1.5 -10.9,-2.9 -16.4,-4.4 -7.5,-2 -15,-4 -22.5,-6 -5.5,-1.5 -11,-2.9 -16.6,-4.4 -7.6,-2 -15.3,-4 -23.1,-6 -5.6,-1.4 -11.3,-2.9 -17,-4.3 -7.8,-2 -15.6,-4 -23.5,-5.9 -5.8,-1.5 -11.7,-3 -17.5,-4.4 -8,-2 -16,-3.9 -24.1,-5.9 -5.9,-1.4 -11.8,-2.9 -17.7,-4.3 -8.2,-1.9 -16.5,-3.9 -24.8,-5.8 -6,-1.5 -11.9,-2.9 -18,-4.3 -8.4,-1.9 -17,-3.9 -25.5,-5.9 -6,-1.3 -12.1,-2.7 -18.1,-4.1 -8.7,-2 -17.5,-3.9 -26.3,-5.9 -6.1,-1.3 -12.3,-2.7 -18.5,-4.1 -8.9,-1.9 -17.9,-3.9 -27,-5.8 -6.1,-1.4 -12.3,-2.7 -18.5,-4 -9.3,-2 -18.7,-4 -28.1,-5.9 -6.1,-1.3 -12.2,-2.6 -18.4,-3.8 -9.7,-2 -19.5,-4 -29.3,-6 -6.1,-1.2 -12.1,-2.5 -18.2,-3.7 -10.1,-2 -20.3,-4 -30.5,-6 -6,-1.2 -11.9,-2.4 -18,-3.5 -10.6,-2.1 -21.4,-4.1 -32.2,-6.2 -5.7,-1.1 -11.4,-2.2 -17.2,-3.2 -11.3,-2.2 -22.7,-4.3 -34.1,-6.4 -5.5,-1 -10.9,-2 -16.4,-3 -12.2,-2.2 -24.6,-4.4 -37,-6.6 -4.8,-0.8 -9.5,-1.7 -14.3,-2.5 -13.9,-2.5 -27.9,-4.9 -42,-7.3 -3.5,-0.5 -6.9,-1.1 -10.4,-1.7 -16.5,-2.8 -33.1,-5.6 -49.9,-8.3 -1.2,-0.2 -2.3,-0.4 -3.5,-0.6 -638.6,-104.5 -1494.9,-178.7 -2638.8,-178.7"
         style="fill:#bababa;fill-opacity:1;fill-rule:nonzero;stroke:none"
         id="path14" /><path
         d="m 26415.5,25723.5 h -3010.6 c -134.8,0 -267.8,7.6 -398.7,22.6 -1044.7,119.3 -1954.9,701.7 -2535.8,1544.9 -421.5,612 -669.4,1361.2 -669.4,2170.5 v 55.1 c -201.1,76.8 -343.9,271.3 -343.9,499.4 v 2160.8 c 0,228 142.8,422.5 343.9,499.3 v 5974.8 c -112.7,-105.8 -390.7,-154.9 -666.1,-154.9 -246.5,0 -490.9,39.4 -612.7,112.6 -129.8,78.1 -120.3,194.6 174.4,343 324.4,163.5 612.4,215.3 847.3,215.3 94.7,0 180.7,-8.4 257.1,-21.3 v 834 c -201.1,76.7 -343.9,271.3 -343.9,499.3 v 2160.8 c 0,228.1 142.8,422.6 343.9,499.4 v 175.3 c 0,562.6 178.6,1081.9 480.3,1500.1 440.8,611.1 1144.1,1006.6 1936.5,1006.6 h 5384.8 c 792.4,0 1495.7,-395.5 1936.4,-1006.6 301.7,-418.2 480.4,-937.5 480.4,-1500.1 v -175.3 c 201,-76.8 343.9,-271.3 343.9,-499.4 v -2160.8 c 0,-228 -142.9,-422.6 -343.9,-499.3 v -834 c 76.3,12.9 162.4,21.3 257.1,21.3 234.9,0 522.9,-51.8 847.3,-215.3 294.6,-148.4 304.1,-264.9 174.4,-343 -121.8,-73.2 -366.2,-112.6 -612.8,-112.6 -275.4,0 -553.4,49.1 -666,154.9 v -5974.8 c 201,-76.8 343.9,-271.3 343.9,-499.3 V 30016 c 0,-228.1 -142.9,-422.6 -343.9,-499.4 v -55.1 c 0,-812.7 -250.1,-1564.9 -674.8,-2178.1 -273.2,-394.6 -618.7,-731.7 -1016.4,-990.5 -13.2,-8.6 -26.5,-17.2 -39.9,-25.6 -200.6,-126.8 -414,-233.9 -637.8,-318.5 -14.9,-5.7 -29.9,-11.2 -44.9,-16.7 -255.2,-92.5 -523.5,-156.2 -801.3,-187.1 -127.7,-14.2 -257.5,-21.5 -388.8,-21.5"
         style="fill:#bababa;fill-opacity:1;fill-rule:nonzero;stroke:none"
         id="path16" /><path
         d="m 42330.6,25792.2 h -7179 c -441.2,0 -799,357.6 -799,798.9 v 928.8 c -172.7,65.9 -295.4,233.1 -295.4,428.9 v 1856 c 0,195.9 122.7,363 295.4,428.9 v 9718.7 c -96.7,-90.9 -335.5,-133.1 -572.1,-133.1 -211.7,0 -421.7,33.9 -526.3,96.8 -111.4,67 -103.3,167.1 149.8,294.6 278.7,140.4 526.1,184.9 727.8,184.9 81.3,0 155.3,-7.2 220.8,-18.3 v 716.3 c -172.7,66 -295.4,233.1 -295.4,428.9 v 1856 c 0,195.9 122.7,363 295.4,428.9 v 150.6 c 0,483.2 153.5,929.2 412.6,1288.5 38.7,53.7 79.8,105.4 123.2,155.1 110.7,127 235.8,240.2 372.6,336.9 -174.2,-315.1 -273.7,-680.1 -273.7,-1069.4 V 27302.2 c 0,-441.3 357.7,-799 798.9,-799 h 7179 c 55.2,0 109.1,5.6 161.1,16.3 -36.2,-407.7 -378.6,-727.3 -795.7,-727.3 m 1433.5,14028.1 v 514.8 c 99.3,-28.7 204.2,-69.1 314,-124.4 253.1,-127.5 261.2,-227.6 149.8,-294.6 -94.3,-56.7 -274.2,-89.8 -463.8,-95.8"
         style="fill:#bababa;fill-opacity:1;fill-rule:nonzero;stroke:none"
         id="path18" /><path
         d="m 10684,2466.8 c -1195,0 -2141.04,126.3 -2870.92,294.2 -403.37,92.9 -740.74,198.5 -1017.65,302.6 -468.99,176.3 -817.71,559 -960.38,1021.5 -46.29,150 -70.87,308.4 -70.87,470.9 v 304 c -203.23,69.5 -349.44,262 -349.44,488.7 v 2087.9 c 0,226.8 146.21,419.3 349.44,488.7 v 6370.4 c -2.89,-3 -5.73,-5.8 -8.65,-8.9 -102.87,-108 -378.76,-158 -652.01,-158 -238.23,0 -474.45,38.1 -592.14,108.8 -125.36,75.5 -116.19,188 168.5,331.5 313.55,157.9 591.8,208 818.77,208 98.63,0 187.61,-9.4 265.53,-23.6 v 2334.7 c -203.23,69.5 -349.44,262 -349.44,488.7 v 2088 c 0,226.7 146.21,419.2 349.44,488.6 v 2085 c 0,0 87.12,63.5 275.66,158.3 v 252.7 c 0,0 1271.96,928.3 4644.16,928.3 3372.2,0 4644.1,-928.3 4644.1,-928.3 v -252.7 c 188.6,-94.8 275.7,-158.3 275.7,-158.3 v -2085 c 203.2,-69.4 349.4,-261.9 349.4,-488.6 v -2088 c 0,-226.7 -146.2,-419.2 -349.4,-488.7 v -2334.7 c 77.9,14.2 166.9,23.6 265.5,23.6 227,0 505.3,-50.1 818.8,-208 284.7,-143.5 293.9,-256 168.5,-331.5 -117.7,-70.8 -353.9,-108.8 -592.1,-108.8 -273.3,0 -549.2,50.1 -652.1,158 -2.9,3.1 -5.7,5.9 -8.6,8.9 V 7925.3 c 203.2,-69.4 349.4,-261.9 349.4,-488.7 V 5348.7 c 0,-226.7 -146.2,-419.2 -349.4,-488.7 v -304 c 0,-162.5 -24.6,-320.9 -70.9,-470.9 -142.6,-462.5 -491.4,-845.2 -960.3,-1021.5 -277,-104.1 -614.3,-209.7 -1017.7,-302.6 C 12825,2593.1 11879,2466.8 10684,2466.8"
         style="fill:#bababa;fill-opacity:1;fill-rule:nonzero;stroke:none"
         id="path20" /><path
         d="m 25059.7,2497.6 c -1274.3,0 -2283.1,134.7 -3061.3,313.8 h -0.1 0.1 c -215.6,49.6 -413.5,102.6 -594.4,157.2 -180.1,54.3 -343.5,110 -490.8,165.4 -339.3,127.6 -619.4,356.5 -812.1,644.5 -91.3,136.5 -163,286.2 -212,444.8 h 0.1 c -49.4,160 -75.7,328.8 -75.7,502.1 v 324.2 c -216.6,74.1 -372.5,279.3 -372.5,521.1 v 2226.4 c 0,241.8 155.9,447 372.5,521.1 v 6792.9 c -3,-3.2 -6,-6.2 -9.2,-9.4 -109.6,-115.2 -403.8,-168.6 -695.2,-168.6 -254,0 -505.9,40.6 -631.4,116.1 -133.7,80.4 -123.9,200.5 179.7,353.4 334.3,168.4 631,221.9 873,221.9 105.2,0 200.1,-10.1 283.1,-25.3 v 1313.9 c -216.6,74.1 -372.5,279.3 -372.5,521.1 v 2226.4 c 0,252 169.3,464.4 400.4,529.8 v 0.2 c 102.1,846.9 478.8,1609.1 1038.6,2195.1 300.5,314.6 653.7,578.4 1045.5,777.2 522.9,265.3 1114.6,414.9 1741.2,414.9 h 2786 c 626.6,0 1218.3,-149.6 1741.2,-414.9 391.8,-198.8 745,-462.6 1045.4,-777.2 559.8,-586 936.6,-1348.2 1038.6,-2195.1 l 0.1,-0.2 c 231,-65.4 400.4,-277.8 400.4,-529.8 v -2226.4 c 0,-241.8 -155.9,-447 -372.6,-521.1 v -1313.9 c 83.1,15.2 177.9,25.3 283.1,25.3 242.1,0 538.8,-53.5 873.1,-221.9 303.6,-152.9 313.4,-273 179.7,-353.4 -125.5,-75.5 -377.4,-116.1 -631.5,-116.1 -291.3,0 -585.5,53.4 -695.2,168.6 -3.1,3.2 -6.1,6.2 -9.2,9.4 V 8318.2 c 216.7,-74.1 372.6,-279.3 372.6,-521.1 V 5570.7 c 0,-241.8 -155.9,-447 -372.6,-521.1 v -324.2 c 0,-173.3 -26.2,-342.1 -75.6,-502.1 -48.9,-158.6 -120.6,-308.3 -212,-444.8 -192.6,-288 -472.8,-516.9 -812.1,-644.5 -145.8,-54.8 -307.4,-110 -485.3,-163.8 -182.5,-55.1 -382.1,-108.7 -599.8,-158.8 v 0 0 c -778.3,-179.1 -1787.1,-313.8 -3061.3,-313.8"
         style="fill:#bababa;fill-opacity:1;fill-rule:nonzero;stroke:none"
         id="path22" /><path
         d="m 42354.8,2497.6 h -7206.9 c -176.2,0 -331.9,87.8 -426,221.8 h -2.5 c -322,0 -582.8,261.4 -582.2,583.4 0.6,316.1 1.5,749.5 2.6,1274.4 -273.8,2.4 -495.1,225 -495.1,499.3 V 7096 c 0,275.8 223.6,499.4 499.5,499.4 h 1.8 c 6.9,3287.2 15.9,7573.1 22.5,10680.4 -250.3,23 -446.4,233.4 -446.4,489.7 v 1988.8 c 0,258.4 199.4,470.2 452.7,490.2 1.5,705.6 2.3,1118.3 2.3,1118.3 0,0 27,6.7 75.4,18.2 5.1,1.2 10.6,2.5 16.2,3.8 24.1,55.7 73.7,98.5 135.9,112.5 339.6,76 997.5,210.7 1540.8,245.9 v 0 l 508.3,392.8 -0.8,-1.5 0.8,1.5 c 0,0 1276.2,441.8 2317.6,441.8 1041.2,0 2317,-441.6 2317.6,-441.8 v 0 l 468.1,-390.4 c 530,-29.7 1182.1,-160.1 1540.6,-239.4 62.3,-13.7 111.9,-56.5 136.3,-112.1 5.5,-1.3 11,-2.6 16.3,-3.8 73.3,-17 115.3,-27.5 115.3,-27.5 v -1126.3 c 225,-45.2 394.5,-243.9 394.5,-482.2 v -1988.8 c 0,-238.3 -169.5,-437 -394.5,-482.2 V 7594.7 c 263,-14.4 471.9,-232.1 471.9,-498.7 V 5076.5 c 0,-266.6 -208.9,-484.3 -471.9,-498.7 V 3301.6 c 0,-321.5 -260.6,-582.2 -582.2,-582.2 h -2.5 c -94.1,-134 -249.8,-221.8 -426,-221.8"
         style="fill:#bababa;fill-opacity:1;fill-rule:nonzero;stroke:none"
         id="path24" /><path
         d="m 16192.7,43776.8 -235.2,6.2 -78.5,-2963.8 235.2,-6.2 c 207.5,-5.5 380.2,158.3 385.7,365.8 l 58.6,2212.3 c 5.5,207.5 -158.3,380.2 -365.8,385.7"
         style="fill:#231f20;fill-opacity:1;fill-rule:nonzero;stroke:none"
         id="path26" /><path
         d="m 6444.6,43776.8 235.21,6.2 78.54,-2963.8 -235.21,-6.2 c -207.54,-5.5 -380.24,158.3 -385.74,365.8 l -58.63,2212.3 c -5.5,207.5 158.29,380.2 365.83,385.7"
         style="fill:#231f20;fill-opacity:1;fill-rule:nonzero;stroke:none"
         id="path28" /><path
         d="m 15877.6,32662.9 -235.2,6.2 -78.5,-2963.8 235.2,-6.2 c 207.5,-5.5 380.2,158.3 385.7,365.8 l 58.7,2212.3 c 5.5,207.5 -158.3,380.2 -365.9,385.7"
         style="fill:#231f20;fill-opacity:1;fill-rule:nonzero;stroke:none"
         id="path30" /><path
         d="m 6759.67,32619.5 235.21,6.2 78.54,-2963.8 -235.21,-6.2 c -207.54,-5.5 -380.25,158.3 -385.74,365.8 l -58.63,2212.3 c -5.5,207.5 158.29,380.2 365.83,385.7"
         style="fill:#231f20;fill-opacity:1;fill-rule:nonzero;stroke:none"
         id="path32" /><path
         d="m 16268,44715.3 -489.6,-16860 c -12.6,-434.2 -288.3,-817.6 -696.7,-965.8 -609.5,-221.2 -1733.7,-454.9 -3763,-454.9 -2029.46,0 -3153.66,233.7 -3763.17,454.9 -50.37,18.3 -98.73,40.1 -144.8,65.3 -327.54,178.3 -540.8,519.8 -551.83,900.5 l -2.23,76.1 v 0 L 6369.3,44715.3 c -8.96,308.7 134.44,602.1 383.46,784.8 l 1062.21,779 c 224.14,164.4 494.87,253.1 772.81,253.1 h 5461.72 c 278,0 548.7,-88.7 772.8,-253.1 l 1062.2,-779 c 249.1,-182.7 392.4,-476.1 383.5,-784.8"
         style="fill:#44aaaa;fill-opacity:1;fill-rule:nonzero;stroke:none"
         id="path34" /><path
         d="m 11318.7,30287.5 c -2917.42,0 -3892.74,501.4 -4176.56,715.9 l 75.17,-2588.9 c 11.45,-394.2 262.07,-741.3 632.4,-876.8 558.71,-204.3 1593.55,-421.3 3468.99,-421.3 1875.3,0 2910.2,217 3468.9,421.3 370.3,135.5 620.9,482.6 632.4,876.8 l 75.2,2588.9 c -283.9,-214.5 -1259.2,-715.9 -4176.5,-715.9"
         style="fill:#50c9c6;fill-opacity:1;fill-rule:nonzero;stroke:none"
         id="path36" /><path
         d="m 15661.5,40995.6 209,3369.5 c 8.2,283.9 -123.6,553.8 -352.7,721.8 l -976.9,716.4 c -206.1,151.2 -455.1,232.7 -710.7,232.7 H 11318.7 8807.12 c -255.63,0 -504.6,-81.5 -710.74,-232.7 l -976.9,-716.4 c -229.05,-168 -360.89,-437.9 -352.64,-721.8 l 218.77,-3366.2 c 963.62,317.8 2545.26,525 4333.09,525 1793.8,0 3380.1,-208.6 4342.8,-528.3"
         style="fill:#50c9c6;fill-opacity:1;fill-rule:nonzero;stroke:none"
         id="path38" /><path
         d="m 11318.7,41221.4 c 0,0 -2787.03,-17.4 -4176.56,-520.7 0,0 245.98,-972.3 1351.06,-1840 128.37,-100.7 286.71,-155.8 449.92,-155.8 h 2375.58 2375.5 c 163.2,0 321.5,55.1 449.9,155.8 1105.1,867.7 1351.1,1840 1351.1,1840 -1389.6,503.3 -4176.5,520.7 -4176.5,520.7"
         style="fill:#231f20;fill-opacity:1;fill-rule:nonzero;stroke:none"
         id="path40" /><path
         d="m 6942.19,39963.1 c 0,0 1084.72,-859.1 1084.72,-3115.3 0,-2256.2 0,-1354 0,-3141.5 0,-1787.4 -866.69,-2203.9 -866.69,-2203.9 l -218.03,8460.7"
         style="fill:#231f20;fill-opacity:1;fill-rule:nonzero;stroke:none"
         id="path42" /><path
         d="m 15695.1,39963.1 c 0,0 -1084.7,-859.1 -1084.7,-3115.3 0,-2256.2 0,-1354 0,-3141.5 0,-1787.4 866.7,-2203.9 866.7,-2203.9 l 218,8460.7"
         style="fill:#231f20;fill-opacity:1;fill-rule:nonzero;stroke:none"
         id="path44" /><path
         d="m 14256.9,32401.5 c -88,222.1 -302.8,367.8 -541.7,367.8 H 11318.7 8922.1 c -238.9,0 -453.68,-145.7 -541.67,-367.8 -131.46,-331.9 -360.6,-830.3 -684,-1246.3 0,0 649.38,-520.6 3622.27,-520.6 2972.8,0 3622.2,520.6 3622.2,520.6 -323.4,416 -552.6,914.4 -684,1246.3"
         style="fill:#231f20;fill-opacity:1;fill-rule:nonzero;stroke:none"
         id="path46" /><path
         d="m 8037.92,46288 c -203.11,-142.1 -1028.97,-767.4 -1256.76,-940.1 -30.91,-23.4 -33.99,-68.7 -6.57,-96.1 89.41,-89.5 231.23,-98.8 331.59,-21.9 320.85,245.9 994.78,753 1254.63,877 346.51,165.4 -86.63,346.5 -322.89,181.1"
         style="fill:#eaea28;fill-opacity:1;fill-rule:nonzero;stroke:none"
         id="path48" /><path
         d="m 14599.4,46288 c 203.1,-142.1 1029,-767.4 1256.7,-940.1 31,-23.4 34,-68.7 6.6,-96.1 -89.4,-89.5 -231.2,-98.8 -331.6,-21.9 -320.8,245.9 -994.8,753 -1254.6,877 -346.5,165.4 86.6,346.5 322.9,181.1"
         style="fill:#eaea28;fill-opacity:1;fill-rule:nonzero;stroke:none"
         id="path50" /><path
         d="m 8623.5,26972.1 c -1484.7,233.8 -1763.7,951.1 -1766.83,959.3 l 2.23,-76.1 c 0.36,-12.1 0.93,-24.3 1.65,-36.3 0.73,-11 1.56,-22 2.59,-32.9 0.16,-1.3 0.26,-2.6 0.37,-3.8 1.66,-16.9 3.73,-33.7 6.16,-50.3 0.83,-5.8 1.77,-11.6 2.7,-17.4 0.93,-5.7 1.92,-11.5 2.95,-17.2 0.78,-4.4 1.61,-8.8 2.44,-13.1 1.35,-7.1 2.8,-14.1 4.3,-21.2 1.25,-5.7 2.49,-11.3 3.83,-17 1.3,-5.6 2.65,-11.3 4.05,-16.9 l 0.05,-0.2 c 1.4,-5.6 2.8,-11.1 4.3,-16.6 1.4,-5.4 2.9,-10.8 4.41,-16.2 1.76,-6.2 3.57,-12.4 5.49,-18.6 1.4,-4.5 2.8,-9.2 4.25,-13.7 l 0.78,-2.4 c 1.35,-4.2 2.74,-8.4 4.14,-12.6 2.13,-6.4 4.35,-12.8 6.64,-19.2 1.6,-4.6 3.26,-9.1 4.92,-13.7 4.3,-11.5 8.81,-22.9 13.47,-34.3 2.18,-5.3 4.41,-10.6 6.69,-15.9 2.28,-5.2 4.56,-10.5 6.95,-15.7 2.22,-4.9 4.45,-9.8 6.78,-14.7 1.04,-2.3 2.08,-4.6 3.16,-6.8 4,-8.3 8.09,-16.6 12.29,-24.9 1.86,-3.6 3.73,-7.2 5.65,-10.8 1.45,-2.9 3,-5.8 4.56,-8.6 1.45,-2.8 2.95,-5.6 4.5,-8.4 15.5,-28.3 32.24,-55.8 50.22,-82.5 2.08,-3.1 4.15,-6.2 6.27,-9.2 3.32,-4.9 6.74,-9.7 10.11,-14.5 2.02,-2.8 3.99,-5.6 6.07,-8.4 3.21,-4.4 6.47,-8.8 9.79,-13.2 1.97,-2.6 3.94,-5.2 5.91,-7.8 5.91,-7.7 11.86,-15.3 17.93,-22.8 3.52,-4.4 7.1,-8.7 10.68,-13 2.38,-2.8 4.76,-5.7 7.2,-8.5 82.76,-96.8 183.2,-179 297.58,-241.2 46.07,-25.2 94.43,-47 144.8,-65.3 315.15,-114.3 767.89,-232.1 1412.18,-319.1 0,200.4 -146.2,370.6 -344.21,401.7"
         style="fill:#cc3b3b;fill-opacity:1;fill-rule:nonzero;stroke:none"
         id="path52" /><path
         d="m 14013.8,26972.1 c -198,-31.1 -344.2,-201.3 -344.2,-401.7 644.3,87 1097,204.8 1412.2,319.1 50.3,18.3 98.7,40.1 144.8,65.3 114.3,62.2 214.8,144.4 297.5,241.2 2.5,2.8 4.9,5.7 7.2,8.5 3.6,4.3 7.2,8.6 10.7,13 6.1,7.5 12,15.1 17.9,22.8 2,2.6 4,5.2 6,7.8 3.3,4.4 6.5,8.8 9.7,13.2 2.1,2.8 4.1,5.6 6.1,8.4 3.4,4.8 6.8,9.6 10.1,14.5 2.1,3 4.2,6.1 6.3,9.2 18,26.7 34.7,54.2 50.2,82.5 1.6,2.8 3.1,5.6 4.5,8.4 1.6,2.8 3.1,5.7 4.6,8.6 1.9,3.6 3.8,7.2 5.6,10.8 4.2,8.3 8.3,16.6 12.3,24.9 1.1,2.2 2.1,4.5 3.2,6.8 2.3,4.9 4.5,9.8 6.8,14.7 2.3,5.2 4.6,10.5 6.9,15.7 2.3,5.3 4.5,10.6 6.7,15.9 4.7,11.4 9.2,22.8 13.5,34.3 1.6,4.6 3.3,9.1 4.9,13.7 2.3,6.4 4.5,12.8 6.6,19.2 1.4,4.2 2.8,8.4 4.2,12.6 l 0.7,2.4 c 1.5,4.5 2.9,9.2 4.3,13.7 1.9,6.2 3.7,12.4 5.5,18.6 1.5,5.4 3,10.8 4.4,16.2 1.5,5.5 2.9,11 4.3,16.6 v 0.2 c 1.4,5.6 2.8,11.3 4.1,16.9 1.3,5.7 2.6,11.3 3.8,17 1.5,7.1 3,14.1 4.3,21.2 0.9,4.3 1.7,8.7 2.5,13.1 1,5.7 2,11.5 2.9,17.2 0.9,5.8 1.9,11.6 2.7,17.4 2.4,16.6 4.5,33.4 6.2,50.3 0.1,1.2 0.2,2.5 0.3,3.8 1.1,10.9 1.9,21.9 2.6,32.9 0.8,12 1.3,24.2 1.7,36.3 l 2.2,76.1 c -3.1,-8.2 -282.1,-725.5 -1766.8,-959.3"
         style="fill:#cc3b3b;fill-opacity:1;fill-rule:nonzero;stroke:none"
         id="path54" /><path
         d="m 17121.7,40462.8 c -636.2,320.5 -1122.3,181.7 -1314.4,99.5 v -196.8 c 52,-7.1 119.3,-35.3 202.2,-106.3 23,-19.6 47.2,-42.5 72.6,-69.2 186.1,-195.4 958.3,-194.4 1202.5,-47.5 121.2,72.9 112.3,181.7 -162.9,320.3"
         style="fill:#50c9c6;fill-opacity:1;fill-rule:nonzero;stroke:none"
         id="path56" /><path
         d="m 5515.54,40462.8 c 636.24,320.5 1122.37,181.7 1314.43,99.5 v -196.8 c -52.03,-7.1 -119.27,-35.3 -202.23,-106.3 -22.96,-19.6 -47.17,-42.5 -72.56,-69.2 -186.1,-195.4 -958.28,-194.4 -1202.49,-47.5 -121.17,72.9 -112.32,181.7 162.85,320.3"
         style="fill:#50c9c6;fill-opacity:1;fill-rule:nonzero;stroke:none"
         id="path58" /><path
         d="m 14534.5,36830.5 h 1272.8 v -277.7 h -1272.8 v 277.7"
         style="fill:#44aaaa;fill-opacity:1;fill-rule:nonzero;stroke:none"
         id="path60" /><path
         d="m 6848.13,36830.5 h 1272.84 v -277.7 H 6848.13 v 277.7"
         style="fill:#44aaaa;fill-opacity:1;fill-rule:nonzero;stroke:none"
         id="path62" /><path
         d="M 12899.3,33105.5 H 9738.05 c -721.31,0 -1306.05,584.7 -1306.05,1306 v 2613.8 c 0,721.3 584.74,1306 1306.05,1306 h 3161.25 c 721.3,0 1306,-584.7 1306,-1306 v -2613.8 c 0,-721.3 -584.7,-1306 -1306,-1306"
         style="fill:#50c9c6;fill-opacity:1;fill-rule:nonzero;stroke:none"
         id="path64" /><path
         d="m 30463.5,43885.3 h -514.2 v -3229.7 h 514.2 c 295.2,0 534.4,239.2 534.4,534.4 v 2160.8 c 0,295.2 -239.2,534.5 -534.4,534.5"
         style="fill:#231f20;fill-opacity:1;fill-rule:nonzero;stroke:none"
         id="path66" /><path
         d="m 20626.2,43885.3 h 514.1 v -3229.7 h -514.1 c -295.2,0 -534.5,239.2 -534.5,534.4 v 2160.8 c 0,295.2 239.3,534.5 534.5,534.5"
         style="fill:#231f20;fill-opacity:1;fill-rule:nonzero;stroke:none"
         id="path68" /><path
         d="m 30463.5,33422.3 h -514.2 v -3229.7 h 514.2 c 295.2,0 534.4,239.3 534.4,534.4 v 2160.8 c 0,295.2 -239.2,534.5 -534.4,534.5"
         style="fill:#231f20;fill-opacity:1;fill-rule:nonzero;stroke:none"
         id="path70" /><path
         d="m 20626.2,33422.3 h 514.1 v -3229.7 h -514.1 c -295.2,0 -534.5,239.3 -534.5,534.4 v 2160.8 c 0,295.2 239.3,534.5 534.5,534.5"
         style="fill:#231f20;fill-opacity:1;fill-rule:nonzero;stroke:none"
         id="path72" /><path
         d="M 30654,44025.5 V 30172.6 c 0,-812.7 -250,-1564.9 -674.8,-2178.1 -582.8,-841.8 -1494.6,-1422.1 -2540.2,-1538.4 -127.8,-14.3 -257.5,-21.5 -388.9,-21.5 h -3010.6 c -134.7,0 -267.7,7.6 -398.7,22.6 -1044.7,119.2 -1954.9,701.6 -2535.7,1544.9 -421.5,611.9 -669.5,1361.2 -669.5,2170.5 v 13852.9 c 0,562.6 178.7,1081.9 480.4,1500.1 440.7,611 1144,1006.6 1936.4,1006.6 h 5384.8 c 792.4,0 1495.7,-395.6 1936.5,-1006.6 301.7,-418.2 480.3,-937.5 480.3,-1500.1"
         style="fill:#57d38c;fill-opacity:1;fill-rule:nonzero;stroke:none"
         id="path74" /><path
         d="m 25535.1,40385.1 c 0,0 -3002.7,-18.7 -4499.8,-561 0,0 265,-1047.6 1455.6,-1982.4 138.3,-108.6 308.9,-167.9 484.8,-167.9 h 2559.4 2559.3 c 175.9,0 346.5,59.3 484.8,167.9 1190.6,934.8 1455.6,1982.4 1455.6,1982.4 -1497.1,542.3 -4499.7,561 -4499.7,561"
         style="fill:#231f20;fill-opacity:1;fill-rule:nonzero;stroke:none"
         id="path76" /><path
         d="M 30187.6,40476.8 V 43337 c 0,1258 -983.2,2277.9 -2196.2,2277.9 H 23098.2 C 21885.3,45614.9 20902,44595 20902,43337 v -2855.1 c 1791.9,471.1 4633.1,488.8 4633.1,488.8 0,0 2861.8,-17.9 4652.5,-493.9"
         style="fill:#59ee9c;fill-opacity:1;fill-rule:nonzero;stroke:none"
         id="path78" /><path
         d="m 20819.9,39029.4 c 0,0 1168.7,-925.5 1168.7,-3356.4 0,-2430.8 0,-1458.8 0,-3384.6 0,-1925.8 -1168.7,-2374.5 -1168.7,-2374.5 v 9115.5"
         style="fill:#231f20;fill-opacity:1;fill-rule:nonzero;stroke:none"
         id="path80" /><path
         d="m 30250.2,39029.4 c 0,0 -1168.6,-925.5 -1168.6,-3356.4 0,-2430.8 0,-1458.8 0,-3384.6 0,-1925.8 1289.5,-2374.5 1289.5,-2374.5 l -120.9,9115.5"
         style="fill:#231f20;fill-opacity:1;fill-rule:nonzero;stroke:none"
         id="path82" /><path
         d="m 25535.1,29519.2 c -2744.6,0 -3700.3,543.5 -3700.3,543.5 v -585.9 c 0,-1358.2 1101,-2459.2 2459.2,-2459.2 h 1241.1 1250.8 c 1358.1,0 2459.2,1101 2459.2,2459.2 v 585.9 c 0,0 -965.5,-543.5 -3710,-543.5"
         style="fill:#231f20;fill-opacity:1;fill-rule:nonzero;stroke:none"
         id="path84" /><path
         d="m 23640.8,26842.7 v -385.5 c -1044.7,119.2 -1954.9,701.6 -2535.7,1544.9 202.3,353.1 468.8,844 468.8,844 0,0 317.9,-1701.3 2066.9,-2003.4"
         style="fill:#cc3b3b;fill-opacity:1;fill-rule:nonzero;stroke:none"
         id="path86" /><path
         d="m 29979.2,27994.5 c -582.8,-841.8 -1494.6,-1422.1 -2540.2,-1538.4 v 386.6 c 1749,302.1 2067,2003.4 2067,2003.4 0,0 270.4,-498.1 473.2,-851.6"
         style="fill:#cc3b3b;fill-opacity:1;fill-rule:nonzero;stroke:none"
         id="path88" /><path
         d="m 27893.8,37106.7 h -4838.2 c -377,0 -682.6,-305.7 -682.6,-682.7 v -5321.2 c 0,-377 305.6,-682.6 682.6,-682.6 h 4838.2 c 377,0 682.6,305.6 682.6,682.6 V 36424 c 0,377 -305.6,682.7 -682.6,682.7"
         style="fill:#59ee9c;fill-opacity:1;fill-rule:nonzero;stroke:none"
         id="path90" /><path
         d="m 23766.5,46362.6 h -914.1 c -599.4,0 -1147.8,-226.4 -1570.2,-601.1 -168.9,-149.9 -169.1,-413.7 -1.4,-564.9 0,0 667.8,773.8 1876.1,678.4 491.2,-38.8 681.2,122.1 733.6,326.8 20.9,81.4 -39.9,160.8 -124,160.8"
         style="fill:#eaea28;fill-opacity:1;fill-rule:nonzero;stroke:none"
         id="path92" /><path
         d="m 29807.4,45761.5 c -422.3,374.7 -970.8,601.1 -1570.2,601.1 h -914 c -84.1,0 -144.9,-79.4 -124.1,-160.8 52.4,-204.7 242.4,-365.6 733.6,-326.8 1208.4,95.4 1876.2,-678.4 1876.2,-678.4 167.6,151.2 167.4,415 -1.5,564.9"
         style="fill:#eaea28;fill-opacity:1;fill-rule:nonzero;stroke:none"
         id="path94" /><path
         d="m 31758.4,39662.7 c -681.2,343.2 -1201.7,194.5 -1407.4,106.6 v -210.8 c 55.7,-7.6 127.7,-37.8 216.6,-113.8 24.6,-21 50.5,-45.6 77.7,-74.1 199.2,-209.2 1026,-208.2 1287.5,-50.9 129.8,78.1 120.3,194.6 -174.4,343"
         style="fill:#59ee9c;fill-opacity:1;fill-rule:nonzero;stroke:none"
         id="path96" /><path
         d="m 19331.2,39662.7 c 681.2,343.2 1201.8,194.5 1407.4,106.6 v -210.8 c -55.7,-7.6 -127.7,-37.8 -216.5,-113.8 -24.6,-21 -50.5,-45.6 -77.7,-74.1 -199.3,-209.2 -1026.1,-208.2 -1287.6,-50.9 -129.7,78.1 -120.2,194.6 174.4,343"
         style="fill:#59ee9c;fill-opacity:1;fill-rule:nonzero;stroke:none"
         id="path98" /><path
         d="m 43600.5,44548.6 h -441.7 v -2774 h 441.7 c 253.5,0 459,205.5 459,459 v 1856 c 0,253.5 -205.5,459 -459,459"
         style="fill:#231f20;fill-opacity:1;fill-rule:nonzero;stroke:none"
         id="path100" /><path
         d="m 35150.9,44548.6 h 441.7 v -2774 h -441.7 c -253.5,0 -459,205.5 -459,459 v 1856 c 0,253.5 205.5,459 459,459"
         style="fill:#231f20;fill-opacity:1;fill-rule:nonzero;stroke:none"
         id="path102" /><path
         d="m 43600.5,30974.9 h -441.7 v -2774 h 441.7 c 253.5,0 459,205.5 459,459 v 1856 c 0,253.5 -205.5,459 -459,459"
         style="fill:#231f20;fill-opacity:1;fill-rule:nonzero;stroke:none"
         id="path104" /><path
         d="m 35150.9,30974.9 h 441.7 v -2774 h -441.7 c -253.5,0 -459,205.5 -459,459 v 1856 c 0,253.5 205.5,459 459,459"
         style="fill:#231f20;fill-opacity:1;fill-rule:nonzero;stroke:none"
         id="path106" /><path
         d="M 43764.1,44669.1 V 27302.2 c 0,-441.3 -357.7,-799 -798.9,-799 h -7179 c -441.2,0 -798.9,357.7 -798.9,799 v 17366.9 c 0,483.2 153.4,929.2 412.5,1288.5 38.8,53.7 79.8,105.4 123.2,155 379.8,435.7 929.1,709.5 1540.1,709.5 h 4625.2 c 680.6,0 1284.7,-339.7 1663.2,-864.5 259.2,-359.3 412.6,-805.3 412.6,-1288.5"
         style="fill:#344444;fill-opacity:1;fill-rule:nonzero;stroke:none"
         id="path108" /><path
         d="m 39367.3,41542.2 c 0,0 -2579.1,-16 -3864.9,-481.8 0,0 227.6,-899.8 1250.2,-1702.7 118.8,-93.3 265.3,-144.3 416.4,-144.3 h 2198.3 2198.3 c 151.1,0 297.6,51 416.4,144.3 1022.6,802.9 1250.2,1702.7 1250.2,1702.7 -1285.8,465.8 -3864.9,481.8 -3864.9,481.8"
         style="fill:#c2f2f2;fill-opacity:1;fill-rule:nonzero;stroke:none"
         id="path110" /><path
         d="m 40272.2,39213.4 h -835.6 l -2198.3,2198.3 c 262.4,29.9 522,53 764.9,70.8 l 2269,-2269.1"
         style="fill:#daf7f7;fill-opacity:1;fill-rule:nonzero;stroke:none"
         id="path112" /><path
         d="m 41939.6,39327 c 0.1,0.1 0.2,0.1 0.2,0.1 0,0 -0.1,0 -0.2,-0.1 m 1.5,1 c 0.1,0 0.1,0.1 0.2,0.2 -0.1,-0.1 -0.1,-0.2 -0.2,-0.2 m 1.3,0.9 c 0.2,0.1 0.4,0.2 0.6,0.4 -0.2,-0.2 -0.4,-0.3 -0.6,-0.4 m 1.4,0.9 c 0.2,0.2 0.5,0.3 0.7,0.5 -0.2,-0.2 -0.5,-0.3 -0.7,-0.5 m 1.3,0.9 c 0.4,0.3 0.7,0.5 1,0.7 -0.3,-0.2 -0.6,-0.4 -1,-0.7 m 1.4,1 c 0.4,0.2 0.8,0.5 1.1,0.7 -0.3,-0.2 -0.7,-0.5 -1.1,-0.7 m 1.4,0.9 c 0.5,0.4 0.9,0.7 1.4,1 -0.5,-0.3 -0.9,-0.7 -1.4,-1 m 1.4,1 c 11.1,7.7 22,15.7 32.7,24.1 0.9,0.7 1.9,1.5 2.8,2.2 -0.9,-0.7 -1.9,-1.5 -2.8,-2.2 -10.7,-8.4 -21.6,-16.4 -32.7,-24.1 m 36,26.7 c 0.8,0.7 1.6,1.3 2.4,1.9 -0.8,-0.6 -1.6,-1.2 -2.4,-1.9 m 2.9,2.3 c 0.8,0.7 1.8,1.4 2.6,2 -0.9,-0.6 -1.7,-1.3 -2.6,-2 m 2.8,2.2 c 0.9,0.7 1.9,1.5 2.8,2.2 -0.9,-0.7 -1.9,-1.5 -2.8,-2.2 m 3,2.3 c 157.7,124.8 296.4,251.8 418.1,377.2 -121.7,-125.4 -260.4,-252.4 -418.1,-377.2 m 418.5,377.7 c 0.5,0.5 1.1,1.1 1.6,1.7 -0.5,-0.6 -1.1,-1.2 -1.6,-1.7 m 2.3,2.4 c 0.5,0.5 1,1.1 1.6,1.6 -0.6,-0.5 -1.1,-1.1 -1.6,-1.6 m 2.2,2.3 c 0.4,0.4 0.9,0.9 1.3,1.3 -0.4,-0.4 -0.8,-0.9 -1.3,-1.3 m 2.3,2.3 c 0.3,0.3 0.5,0.5 0.8,0.9 -0.3,-0.3 -0.5,-0.6 -0.8,-0.9 m 3.2,3.4 c 0.2,0.2 0.5,0.5 0.7,0.7 -0.2,-0.2 -0.4,-0.5 -0.7,-0.7 m 2.2,2.2 c 0.1,0.2 0.4,0.4 0.5,0.6 -0.2,-0.2 -0.3,-0.4 -0.5,-0.6 m 2,2.1 c 0.1,0.2 0.4,0.4 0.5,0.5 -0.2,-0.1 -0.3,-0.3 -0.5,-0.5 m 2.1,2.2 0.1,0.1 c 0,0 0,0 -0.1,-0.1 m -3183.7,1778.8 v 0 c 78.6,1.5 122.2,1.7 122.2,1.7 0,0 -43.5,-0.2 -122.2,-1.7 m 151.6,1.4 c -0.1,0 -0.2,0 -0.3,0 0.1,0 0.2,0 0.3,0 m -17.6,0.2 c -0.1,0 -0.1,0 -0.2,0 0.1,0 0.1,0 0.2,0 m -2.2,0.1 c -0.1,0 -0.2,0 -0.3,0 0.1,0 0.2,0 0.3,0 m -1.9,0 c -0.2,0 -0.4,0 -0.5,0 0.1,0 0.3,0 0.5,0 m -1.1,0 h -0.1 0.1 m -3.3,0 c -0.1,0 -0.3,0 -0.4,0 0.1,0 0.3,0 0.4,0 m -1.2,0 c -0.4,0 -0.7,0 -0.9,0 0.2,0 0.5,0 0.9,0 m -1.7,0 c -0.3,0 -0.4,0 -0.4,0 0,0 0.1,0 0.4,0"
         style="fill:#838d8d;fill-opacity:1;fill-rule:nonzero;stroke:none"
         id="path114" /><path
         d="m 41572,39213.6 -2326.9,2326.9 c 78.7,1.5 122.2,1.7 122.2,1.7 v 0 0 c 0,0 0.1,0 0.4,0 0.2,0 0.5,0 0.8,0 0.2,0 0.5,0 0.9,0 0.2,0 0.5,0 0.8,0 0.1,0 0.3,0 0.4,0 0.9,0 2,0 3.2,0 h 0.1 c 0.2,0 0.4,0 0.6,0 0.1,0 0.3,0 0.5,0 0.5,0 1,0 1.6,0 0.1,0 0.2,0 0.3,0 0.6,0 1.3,-0.1 2,-0.1 0.1,0 0.1,0 0.2,0 4.5,0 10.3,-0.1 17.3,-0.2 0.1,0 0.2,0 0.3,0 198.8,-2.3 1371.5,-22.8 2476.1,-177.9 l 1018.3,-1018.3 c -115.3,-179.4 -266.3,-379.5 -462.2,-583.9 l -0.1,-0.1 c -0.5,-0.5 -1,-1.1 -1.6,-1.7 -0.1,-0.1 -0.4,-0.3 -0.5,-0.5 -0.5,-0.5 -1,-1 -1.5,-1.5 -0.1,-0.2 -0.4,-0.4 -0.5,-0.6 -0.5,-0.5 -1,-1 -1.5,-1.5 -0.2,-0.2 -0.5,-0.5 -0.7,-0.7 -0.8,-0.8 -1.6,-1.7 -2.4,-2.5 -0.3,-0.4 -0.5,-0.6 -0.8,-0.9 -0.3,-0.3 -0.7,-0.7 -1,-1 -0.4,-0.4 -0.9,-0.9 -1.3,-1.3 -0.2,-0.3 -0.4,-0.5 -0.6,-0.7 -0.6,-0.5 -1.1,-1.1 -1.6,-1.6 -0.2,-0.3 -0.5,-0.5 -0.7,-0.7 -0.5,-0.6 -1.1,-1.2 -1.6,-1.7 -0.2,-0.2 -0.3,-0.3 -0.4,-0.5 -121.7,-125.4 -260.4,-252.4 -418.1,-377.2 -0.1,0 -0.2,-0.1 -0.2,-0.1 -0.9,-0.7 -1.9,-1.5 -2.8,-2.2 0,0 -0.1,-0.1 -0.2,-0.2 -0.8,-0.6 -1.8,-1.3 -2.6,-2 -0.1,-0.1 -0.3,-0.2 -0.5,-0.4 -0.8,-0.6 -1.6,-1.2 -2.4,-1.9 -0.2,-0.1 -0.3,-0.2 -0.5,-0.4 -0.9,-0.7 -1.9,-1.5 -2.8,-2.2 -10.7,-8.4 -21.6,-16.4 -32.7,-24.1 v 0 c -0.5,-0.3 -0.9,-0.6 -1.4,-1 -0.1,0 -0.2,-0.1 -0.3,-0.2 -0.3,-0.2 -0.7,-0.5 -1.1,-0.7 -0.1,-0.1 -0.2,-0.2 -0.4,-0.3 -0.3,-0.2 -0.6,-0.4 -1,-0.7 -0.2,-0.1 -0.4,-0.2 -0.6,-0.4 -0.2,-0.2 -0.5,-0.3 -0.7,-0.5 -0.3,-0.2 -0.6,-0.4 -0.8,-0.5 -0.2,-0.2 -0.4,-0.3 -0.6,-0.4 -0.4,-0.3 -0.7,-0.5 -1.1,-0.7 -0.1,-0.1 -0.1,-0.2 -0.2,-0.2 -0.5,-0.3 -0.9,-0.6 -1.3,-0.9 0,0 -0.1,0 -0.2,-0.1 -108.6,-72.5 -236.3,-112.2 -367.6,-113.4"
         style="fill:#daf7f7;fill-opacity:1;fill-rule:nonzero;stroke:none"
         id="path116" /><path
         d="m 43363.5,41621 v 2456.7 c 0,1080.6 -844.5,1956.5 -1886.4,1956.5 h -4202.9 c -1041.8,0 -1886.3,-875.9 -1886.3,-1956.5 v -2452.3 c 1539.1,404.6 3979.4,419.8 3979.4,419.8 0,0 2458.1,-15.3 3996.2,-424.2"
         style="fill:#495757;fill-opacity:1;fill-rule:nonzero;stroke:none"
         id="path118" /><path
         d="M 35337.9,40377.8 V 36936 l 808.5,488.4 c 118.7,71.7 189.7,201.9 184.9,340.5 -67.2,1954.9 -993.4,2612.9 -993.4,2612.9"
         style="fill:#c2f2f2;fill-opacity:1;fill-rule:nonzero;stroke:none"
         id="path120" /><path
         d="m 42416.9,37764.9 c -4.8,-138.6 66.2,-268.8 184.9,-340.5 l 808.5,-488.4 v 3441.8 c 0,0 -926.2,-658 -993.4,-2612.9"
         style="fill:#c2f2f2;fill-opacity:1;fill-rule:nonzero;stroke:none"
         id="path122" /><path
         d="m 44712.7,40921.8 c -585.1,294.7 -1032.2,167 -1208.8,91.5 v -181 c 47.8,-6.6 109.7,-32.5 186,-97.7 21.1,-18.1 43.3,-39.2 66.7,-63.7 171.1,-179.7 881.3,-178.8 1105.9,-43.7 111.5,67 103.3,167.1 -149.8,294.6"
         style="fill:#495757;fill-opacity:1;fill-rule:nonzero;stroke:none"
         id="path124" /><path
         d="m 34038.6,40921.8 c 585.2,294.7 1032.3,167 1208.9,91.5 v -181 c -47.8,-6.6 -109.7,-32.5 -186,-97.7 -21.1,-18.1 -43.4,-39.2 -66.7,-63.7 -171.2,-179.7 -881.3,-178.8 -1105.9,-43.7 -111.5,67 -103.3,167.1 149.7,294.6"
         style="fill:#495757;fill-opacity:1;fill-rule:nonzero;stroke:none"
         id="path126" /><path
         d="m 37615.1,46731.6 c -635.4,-950.7 -2030.9,-709.5 -2030.9,-709.5 379.8,435.7 929.1,709.5 1540.1,709.5 h 490.8"
         style="fill:#eaea28;fill-opacity:1;fill-rule:nonzero;stroke:none"
         id="path128" /><path
         d="m 41119.5,46731.6 c 635.4,-950.7 2030.9,-709.5 2030.9,-709.5 -379.7,435.7 -929.1,709.5 -1540.1,709.5 h -490.8"
         style="fill:#eaea28;fill-opacity:1;fill-rule:nonzero;stroke:none"
         id="path130" /><path
         d="m 43232.2,36269.7 v -8686.9 c 0,-261.5 -169.8,-483.3 -405.2,-561 -58.3,-19.4 -120.7,-29.8 -185.5,-29.8 h -6548.4 c -76.2,0 -149,14.4 -215.9,40.7 -219.5,86.2 -374.8,300 -374.8,550.1 v 8686.9 h 7729.8"
         style="fill:#253030;fill-opacity:1;fill-rule:nonzero;stroke:none"
         id="path132" /><path
         d="m 41952.1,37160.4 c -122.2,51.8 -253.5,78.5 -386.2,78.5 h -2190.2 -2190.2 c -132.7,0 -264,-26.7 -386.2,-78.5 l -1242.4,-527.3 h 3818.8 3818.8 l -1242.4,527.3"
         style="fill:#c2f2f2;fill-opacity:1;fill-rule:nonzero;stroke:none"
         id="path134" /><path
         d="m 41599.3,38889.4 h -4447.1 c -141.2,0 -255.6,-114.4 -255.6,-255.6 v -844.5 c 0,-141.1 114.4,-255.5 255.6,-255.5 h 4447.1 c 141.1,0 255.5,114.4 255.5,255.5 v 844.5 c 0,141.2 -114.4,255.6 -255.5,255.6"
         style="fill:#495757;fill-opacity:1;fill-rule:nonzero;stroke:none"
         id="path136" /><path
         d="m 36141.8,26992 h -48.7 c -76.2,0 -149,14.4 -215.9,40.7 v 9237 h 264.6 V 26992"
         style="fill:#1d2626;fill-opacity:1;fill-rule:nonzero;stroke:none"
         id="path138" /><path
         d="m 36712.9,26992 h 264.602 v 9277.7 H 36712.9 Z"
         style="fill:#1d2626;fill-opacity:1;fill-rule:nonzero;stroke:none"
         id="path140" /><path
         d="m 37548.5,26992 h 264.602 v 9277.7 H 37548.5 Z"
         style="fill:#1d2626;fill-opacity:1;fill-rule:nonzero;stroke:none"
         id="path142" /><path
         d="m 38384.1,26992 h 264.699 v 9277.7 H 38384.1 Z"
         style="fill:#1d2626;fill-opacity:1;fill-rule:nonzero;stroke:none"
         id="path144" /><path
         d="m 39219.8,26992 h 264.598 v 9277.7 H 39219.8 Z"
         style="fill:#1d2626;fill-opacity:1;fill-rule:nonzero;stroke:none"
         id="path146" /><path
         d="m 40055.5,26992 h 264.602 v 9277.7 H 40055.5 Z"
         style="fill:#1d2626;fill-opacity:1;fill-rule:nonzero;stroke:none"
         id="path148" /><path
         d="m 40891.1,26992 h 264.598 v 9277.7 H 40891.1 Z"
         style="fill:#1d2626;fill-opacity:1;fill-rule:nonzero;stroke:none"
         id="path150" /><path
         d="m 41726.7,26992 h 264.598 v 9277.7 H 41726.7 Z"
         style="fill:#1d2626;fill-opacity:1;fill-rule:nonzero;stroke:none"
         id="path152" /><path
         d="m 42641.5,26992 h -79.1 v 9277.7 h 264.6 v -9247.9 0 c -58.3,-19.4 -120.7,-29.8 -185.5,-29.8"
         style="fill:#1d2626;fill-opacity:1;fill-rule:nonzero;stroke:none"
         id="path154" /><path
         d="m 37678.9,26791 v -287.8 h -1752.6 v 287.8 h 1752.6"
         style="fill:#cc3b3b;fill-opacity:1;fill-rule:nonzero;stroke:none"
         id="path156" /><path
         d="m 42825.1,26791 v -287.8 h -1752.6 v 287.8 h 1752.6"
         style="fill:#cc3b3b;fill-opacity:1;fill-rule:nonzero;stroke:none"
         id="path158" /><path
         d="m 11318.6,24288.9 c -3372.14,0 -4644.11,-928.3 -4644.11,-928.3 v -2088.9 -14062.8 -540 c 0,-626.4 387.2,-1188.4 973.45,-1408.8 734.4,-276.1 1919.29,-563.4 3670.66,-563.4 1751.4,0 2936.3,287.3 3670.7,563.4 586.3,220.4 973.5,782.4 973.5,1408.8 v 540 14062.8 2088.9 c 0,0 -1272,928.3 -4644.2,928.3"
         style="fill:#af4b00;fill-opacity:1;fill-rule:nonzero;stroke:none"
         id="path160" /><path
         d="m 16071.4,20892.4 h -496.8 v -3120.8 h 496.8 c 285.3,0 516.5,231.2 516.5,516.4 v 2087.9 c 0,285.3 -231.2,516.5 -516.5,516.5"
         style="fill:#231f20;fill-opacity:1;fill-rule:nonzero;stroke:none"
         id="path162" /><path
         d="m 6565.83,20892.4 h 496.83 v -3120.8 h -496.83 c -285.22,0 -516.44,231.2 -516.44,516.4 v 2087.9 c 0,285.3 231.22,516.5 516.44,516.5"
         style="fill:#231f20;fill-opacity:1;fill-rule:nonzero;stroke:none"
         id="path164" /><path
         d="m 16071.4,8664.2 h -496.8 V 5543.3 h 496.8 c 285.3,0 516.5,231.3 516.5,516.5 v 2087.9 c 0,285.2 -231.2,516.5 -516.5,516.5"
         style="fill:#231f20;fill-opacity:1;fill-rule:nonzero;stroke:none"
         id="path166" /><path
         d="m 6565.83,8664.2 h 496.83 V 5543.3 h -496.83 c -285.22,0 -516.44,231.3 -516.44,516.5 v 2087.9 c 0,285.2 231.22,516.5 516.44,516.5"
         style="fill:#231f20;fill-opacity:1;fill-rule:nonzero;stroke:none"
         id="path168" /><path
         d="M 16238.4,22949.5 V 5267.1 c 0,-162.5 -24.5,-320.9 -70.8,-470.9 -142.7,-462.5 -491.4,-845.2 -960.4,-1021.5 -276.9,-104.1 -614.3,-209.8 -1017.7,-302.6 -729.8,-168 -1675.9,-294.2 -2870.9,-294.2 -1195,0 -2141,126.2 -2870.88,294.2 -403.36,92.8 -740.73,198.5 -1017.64,302.6 -469,176.3 -817.71,559 -960.38,1021.5 -46.29,150 -70.87,308.4 -70.87,470.9 v 17682.4 c 0,0 248.72,181.6 815.72,388.7 523.2,191 1317.33,403.8 2437.22,515.9 491.43,49.1 1045.43,78.9 1666.83,78.9 621.4,0 1175.4,-29.8 1666.8,-78.9 h 0.1 c 1119.9,-112.1 1914,-324.9 2437.2,-515.9 567,-207.1 815.7,-388.7 815.7,-388.7"
         style="fill:#cc5e00;fill-opacity:1;fill-rule:nonzero;stroke:none"
         id="path170" /><path
         d="m 11267.6,15164.1 c 0,0 -2535.69,-15.8 -3799.91,-473.7 0,0 223.79,-884.7 1229.23,-1674.1 116.79,-91.7 260.86,-141.9 409.34,-141.9 h 2161.34 2161.3 c 148.5,0 292.6,50.2 409.4,141.9 1005.4,789.4 1229.2,1674.1 1229.2,1674.1 -1264.2,457.9 -3799.9,473.7 -3799.9,473.7"
         style="fill:#231f20;fill-opacity:1;fill-rule:nonzero;stroke:none"
         id="path172" /><path
         d="m 15607,15763.2 v 6444.5 c 0,0 -1174.5,857.3 -4288.4,857.3 -3113.84,0 -4288.37,-857.3 -4288.37,-857.3 v -1928.8 -4491.8 c 1741.18,395.1 4237.37,410.7 4237.37,410.7 0,0 2595.6,-16.2 4339.4,-434.6"
         style="fill:#f07f23;fill-opacity:1;fill-rule:nonzero;stroke:none"
         id="path174" /><path
         d="m 7285.76,13844.9 c 0,0 986.91,-418.4 986.91,-1517 0,-1098.6 0,-659.3 0,-1529.7 0,-870.3 -986.91,-1073.2 -986.91,-1073.2 v 4119.9"
         style="fill:#231f20;fill-opacity:1;fill-rule:nonzero;stroke:none"
         id="path176" /><path
         d="m 15249.4,13844.9 c 0,0 -986.9,-418.4 -986.9,-1517 0,-1098.6 0,-659.3 0,-1529.7 0,-870.3 1089,-1073.2 1089,-1073.2 l -102.1,4119.9"
         style="fill:#231f20;fill-opacity:1;fill-rule:nonzero;stroke:none"
         id="path178" /><path
         d="m 8142.85,9011.6 v -162.5 c 0,-1146.9 929.78,-2076.7 2076.75,-2076.7 h 1048 1056.3 c 1146.9,0 2076.7,929.8 2076.7,2076.7 v 162.5 H 8142.85"
         style="fill:#231f20;fill-opacity:1;fill-rule:nonzero;stroke:none"
         id="path180" /><path
         d="m 15182.4,7087.1 h -93.8 c -113.6,0 -222.8,-45.2 -302.3,-126.4 -522.3,-533.8 -1250.8,-865.1 -2056.7,-865.1 H 11266 9813.89 c -805.91,0 -1534.42,331.3 -2056.79,865.1 -79.44,81.2 -188.63,126.4 -302.22,126.4 -234.53,0 -424.65,-190.1 -424.65,-424.6 v -343.1 -498.7 c 0,-578.4 357.54,-1097.3 898.88,-1300.9 678.15,-254.9 1772.27,-520.2 3389.49,-520.2 1617.3,0 2711.4,265.3 3389.6,520.2 541.3,203.6 898.8,722.5 898.8,1300.9 v 498.7 343.1 c 0,234.5 -190.1,424.6 -424.6,424.6"
         style="fill:#f07f23;fill-opacity:1;fill-rule:nonzero;stroke:none"
         id="path182" /><path
         d="M 13398.9,12385.5 H 9095.35 c -271.14,0 -490.94,-219.8 -490.94,-491 V 9965.3 c 0,-271.1 219.8,-490.9 490.94,-490.9 h 4303.55 c 271.1,0 490.9,219.8 490.9,490.9 v 1929.2 c 0,271.2 -219.8,491 -490.9,491"
         style="fill:#f07f23;fill-opacity:1;fill-rule:nonzero;stroke:none"
         id="path184" /><path
         d="m 17322.7,15280.1 c -658.2,331.7 -1161.2,188 -1359.9,103 v -203.6 c 53.8,-7.4 123.4,-36.5 209.2,-110 23.8,-20.3 48.8,-44 75.1,-71.6 192.5,-202.1 991.5,-201.2 1244.1,-49.2 125.4,75.5 116.2,188 -168.5,331.4"
         style="fill:#f07f23;fill-opacity:1;fill-rule:nonzero;stroke:none"
         id="path186" /><path
         d="m 5314.53,15280.1 c 658.27,331.7 1161.24,188 1359.96,103 v -203.6 c -53.83,-7.4 -123.4,-36.5 -209.24,-110 -23.76,-20.3 -48.8,-44 -75.08,-71.6 -192.53,-202.1 -991.47,-201.2 -1244.14,-49.2 -125.37,75.5 -116.21,188 168.5,331.4"
         style="fill:#f07f23;fill-opacity:1;fill-rule:nonzero;stroke:none"
         id="path188" /><path
         d="m 9651.77,23854.1 c -904.67,-1096.7 -1902.92,-804.5 -2437.22,-515.9 523.2,191 1317.33,403.8 2437.22,515.9"
         style="fill:#eaea28;fill-opacity:1;fill-rule:nonzero;stroke:none"
         id="path190" /><path
         d="m 15422.7,23338.2 c -534.3,-288.6 -1532.5,-580.8 -2437.2,515.9 1119.9,-112.1 1914,-324.9 2437.2,-515.9"
         style="fill:#eaea28;fill-opacity:1;fill-rule:nonzero;stroke:none"
         id="path192" /><path
         d="m 8447.72,3472.1 c -403.36,92.8 -740.73,198.5 -1017.64,302.6 -469,176.3 -817.71,559 -960.38,1021.5 529,-119.1 1395.99,-443.6 1978.02,-1324.1"
         style="fill:#c7360a;fill-opacity:1;fill-rule:nonzero;stroke:none"
         id="path194" /><path
         d="m 16167.6,4796.2 c -142.7,-462.5 -491.4,-845.2 -960.4,-1021.5 -276.9,-104.1 -614.3,-209.8 -1017.7,-302.6 582.1,880.5 1449.1,1205 1978.1,1324.1"
         style="fill:#c7360a;fill-opacity:1;fill-rule:nonzero;stroke:none"
         id="path196" /><path
         d="m 30762.4,20922.4 h -529.8 v -3327.8 h 529.8 c 304.1,0 550.6,246.5 550.6,550.7 v 2226.4 c 0,304.1 -246.5,550.7 -550.6,550.7"
         style="fill:#231f20;fill-opacity:1;fill-rule:nonzero;stroke:none"
         id="path198" /><path
         d="m 20626.3,20922.4 h 529.8 v -3327.8 h -529.8 c -304.1,0 -550.7,246.5 -550.7,550.7 v 2226.4 c 0,304.1 246.6,550.7 550.7,550.7"
         style="fill:#231f20;fill-opacity:1;fill-rule:nonzero;stroke:none"
         id="path200" /><path
         d="m 30762.4,9058.9 h -529.8 V 5731.1 h 529.8 c 304.1,0 550.6,246.5 550.6,550.7 v 2226.4 c 0,304.1 -246.5,550.7 -550.6,550.7"
         style="fill:#231f20;fill-opacity:1;fill-rule:nonzero;stroke:none"
         id="path202" /><path
         d="m 20626.3,9058.9 h 529.8 V 5731.1 h -529.8 c -304.1,0 -550.7,246.5 -550.7,550.7 v 2226.4 c 0,304.1 246.6,550.7 550.7,550.7"
         style="fill:#231f20;fill-opacity:1;fill-rule:nonzero;stroke:none"
         id="path204" /><path
         d="M 30940.5,20435.9 V 5436.5 c 0,-173.3 -26.3,-342.1 -75.6,-502.1 -152.2,-493.2 -524,-901.3 -1024.1,-1089.3 -295.3,-111 -655,-223.6 -1085.2,-322.6 -778.2,-179.1 -1787,-313.8 -3061.3,-313.8 -1274.2,0 -2283,134.7 -3061.3,313.8 -430.1,99 -789.9,211.6 -1085.1,322.6 -500.2,188 -872,596.1 -1024.1,1089.3 -49.4,160 -75.6,328.8 -75.6,502.1 v 14999.4 c 0,157.6 9.5,313.1 27.9,465.8 102,846.8 478.8,1609.1 1038.6,2195.1 300.4,314.6 653.6,578.4 1045.4,777.1 522.9,265.4 1114.6,415 1741.2,415 h 2786 c 626.6,0 1218.3,-149.6 1741.2,-415 391.8,-198.7 745,-462.5 1045.5,-777.1 559.8,-586 936.5,-1348.3 1038.6,-2195.1 18.4,-152.7 27.9,-308.2 27.9,-465.8"
         style="fill:#e04538;fill-opacity:1;fill-rule:nonzero;stroke:none"
         id="path206" /><path
         d="m 25639.9,15989.9 c 0,0 -2703.9,-16.8 -4051.9,-505.1 0,0 238.6,-943.4 1310.7,-1785.2 124.6,-97.7 278.2,-151.2 436.5,-151.2 h 2304.7 2304.7 c 158.3,0 312,53.5 436.5,151.2 1072.1,841.8 1310.7,1785.2 1310.7,1785.2 -1348,488.3 -4051.9,505.1 -4051.9,505.1"
         style="fill:#231f20;fill-opacity:1;fill-rule:nonzero;stroke:none"
         id="path208" /><path
         d="M 22895.8,23250.3 C 21860.3,23027.6 21121.5,22111.2 21121.5,21052 v -507.2 -4282.5 c 1856.7,421.4 4518.4,438 4518.4,438 0,0 2767.7,-17.3 4627.3,-463.4 v 4307.9 507.2 c 0,1059.2 -738.8,1975.6 -1774.3,2198.3 -694.9,149.4 -1615.5,265.4 -2798.6,265.4 -1183.1,0 -2103.6,-116 -2798.5,-265.4"
         style="fill:#f95850;fill-opacity:1;fill-rule:nonzero;stroke:none"
         id="path210" /><path
         d="m 21394,14583.2 c 0,0 1052.3,-446.1 1052.3,-1617.5 0,-1171.5 0,-703.1 0,-1631.2 0,-928.1 -1052.3,-1144.4 -1052.3,-1144.4 v 4393.1"
         style="fill:#231f20;fill-opacity:1;fill-rule:nonzero;stroke:none"
         id="path212" /><path
         d="m 29885.8,14583.2 c 0,0 -1052.3,-446.1 -1052.3,-1617.5 0,-1171.5 0,-703.1 0,-1631.2 0,-928.1 1161.2,-1144.4 1161.2,-1144.4 l -108.9,4393.1"
         style="fill:#231f20;fill-opacity:1;fill-rule:nonzero;stroke:none"
         id="path214" /><path
         d="m 22307.9,9429.3 v -173.2 c 0,-1223 991.5,-2214.4 2214.5,-2214.4 h 1117.5 1126.3 c 1223,0 2214.5,991.4 2214.5,2214.4 v 173.2 h -6672.8"
         style="fill:#231f20;fill-opacity:1;fill-rule:nonzero;stroke:none"
         id="path216" /><path
         d="m 29814.3,7377.2 h -100 c -121.1,0 -237.6,-48.1 -322.3,-134.7 -557,-569.3 -1333.8,-922.6 -2193.2,-922.6 h -1560.6 -1548.4 c -859.4,0 -1636.2,353.3 -2193.2,922.6 -84.7,86.6 -201.2,134.7 -322.3,134.7 -250.1,0 -452.8,-202.7 -452.8,-452.8 v -365.8 -531.8 c 0,-616.7 381.3,-1170.1 958.5,-1387.1 723.1,-271.9 1889.8,-554.7 3614.3,-554.7 1724.5,0 2891.2,282.8 3614.4,554.7 577.2,217 958.5,770.4 958.5,1387.1 v 531.8 365.8 c 0,250.1 -202.8,452.8 -452.9,452.8"
         style="fill:#f95850;fill-opacity:1;fill-rule:nonzero;stroke:none"
         id="path218" /><path
         d="m 27912.5,13027 h -4588.9 c -289.1,0 -523.5,-234.4 -523.5,-523.5 v -2057.2 c 0,-289.1 234.4,-523.5 523.5,-523.5 h 4588.9 c 289.2,0 523.5,234.4 523.5,523.5 v 2057.2 c 0,289.1 -234.3,523.5 -523.5,523.5"
         style="fill:#f95850;fill-opacity:1;fill-rule:nonzero;stroke:none"
         id="path220" /><path
         d="m 32096.7,16113.7 c -702,353.6 -1238.3,200.4 -1450.2,109.8 v -217.2 c 57.4,-7.8 131.6,-38.9 223.1,-117.2 25.3,-21.7 52.1,-47 80.1,-76.4 205.3,-215.6 1057.2,-214.5 1326.6,-52.4 133.7,80.4 123.9,200.5 -179.6,353.4"
         style="fill:#f95850;fill-opacity:1;fill-rule:nonzero;stroke:none"
         id="path222" /><path
         d="m 19292,16113.7 c 701.9,353.6 1238.3,200.4 1450.2,109.8 v -217.2 c -57.4,-7.8 -131.6,-38.9 -223.2,-117.2 -25.3,-21.7 -52,-47 -80,-76.4 -205.3,-215.6 -1057.2,-214.5 -1326.7,-52.4 -133.7,80.4 -123.9,200.5 179.7,353.4"
         style="fill:#f95850;fill-opacity:1;fill-rule:nonzero;stroke:none"
         id="path224" /><path
         d="m 22633,3522.5 c -430.1,99 -789.9,211.6 -1085.1,322.6 -500.1,188 -872,596.1 -1024.1,1089.3 564.1,-127 1488.6,-473.1 2109.2,-1411.9"
         style="fill:#a03306;fill-opacity:1;fill-rule:nonzero;stroke:none"
         id="path226" /><path
         d="m 30864.9,4934.4 c -152.2,-493.2 -524,-901.3 -1024.1,-1089.3 -295.3,-111 -655,-223.6 -1085.1,-322.6 620.6,938.8 1545.1,1284.9 2109.2,1411.9"
         style="fill:#a03306;fill-opacity:1;fill-rule:nonzero;stroke:none"
         id="path228" /><path
         d="m 27087.3,23844.2 c 626.6,0 1218.3,-149.6 1741.2,-414.9 317.3,-161 609.2,-364.6 868.3,-603.3 l 177.2,137.3 c -300.5,314.6 -653.7,578.4 -1045.5,777.2 -522.9,265.4 -1114.6,415 -1741.2,415 h -495.6 c -30.2,-108.3 -37.3,-216.9 -0.1,-311.7 l 0.1,0.4 h 495.6"
         style="fill:#eaea28;fill-opacity:1;fill-rule:nonzero;stroke:none"
         id="path230" /><path
         d="m 24301.3,23844.2 h 495.6 l 0.1,-0.4 c 37.3,94.8 30.2,203.4 -0.1,311.7 h -495.6 c -626.6,0 -1218.3,-149.6 -1741.2,-415 -391.8,-198.8 -745,-462.6 -1045.4,-777.2 l 177.1,-137.3 c 259.1,238.7 551.1,442.3 868.3,603.3 522.9,265.3 1114.6,414.9 1741.2,414.9"
         style="fill:#eaea28;fill-opacity:1;fill-rule:nonzero;stroke:none"
         id="path232" /><path
         d="m 41709.5,21039.2 -234.4,416 c 0,0 -1140.5,394.8 -2071.3,394.8 -930.7,0 -2071.2,-394.8 -2071.2,-394.8 l -234.4,-416 c -698.1,0 -1800.3,-275 -1800.3,-275 0,0 -29.9,-14114.3 -35.6,-17034.2 -0.6,-287.7 232.5,-521.3 520.3,-521.3 h 3621.2 3585.6 c 287.3,0 520.3,233 520.3,520.3 v 17035.2 c 0,0 -1102.2,275 -1800.2,275"
         style="fill:#2470b5;fill-opacity:1;fill-rule:nonzero;stroke:none"
         id="path234" /><path
         d="m 43902.8,21957.3 h -473.2 v -2972.6 h 473.2 c 271.7,0 491.9,220.2 491.9,491.9 v 1988.8 c 0,271.6 -220.2,491.9 -491.9,491.9"
         style="fill:#231f20;fill-opacity:1;fill-rule:nonzero;stroke:none"
         id="path236" /><path
         d="m 34848.7,21957.3 h 473.2 v -2972.6 h -473.2 c -271.7,0 -491.9,220.2 -491.9,491.9 v 1988.8 c 0,271.6 220.2,491.9 491.9,491.9"
         style="fill:#231f20;fill-opacity:1;fill-rule:nonzero;stroke:none"
         id="path238" /><path
         d="m 43972.6,8306.5 h -480.5 V 5288.1 h 480.5 c 275.8,0 499.5,223.7 499.5,499.5 V 7807 c 0,275.9 -223.7,499.5 -499.5,499.5"
         style="fill:#231f20;fill-opacity:1;fill-rule:nonzero;stroke:none"
         id="path240" /><path
         d="m 34778.9,8306.5 h 480.5 V 5288.1 h -480.5 c -275.9,0 -499.5,223.7 -499.5,499.5 V 7807 c 0,275.9 223.6,499.5 499.5,499.5"
         style="fill:#231f20;fill-opacity:1;fill-rule:nonzero;stroke:none"
         id="path242" /><path
         d="M 44000.2,23073.9 V 4012.7 c 0,-321.5 -260.7,-582.2 -582.2,-582.2 h -8064 c -322,0 -582.8,261.4 -582.2,583.4 6.5,3267 40,19060 40,19060 0,0 26.9,6.7 75.4,18.1 246.4,58.3 1049.9,239.3 1692.9,281 85.4,5.5 167.9,8.6 246,8.6 l 262.3,465.5 c 0,0 1276.1,441.8 2317.6,441.8 1041.3,0 2317.6,-441.8 2317.6,-441.8 l 262.2,-465.5 c 65.7,0 134.7,-2.2 205.8,-6.2 618.2,-34.7 1402.4,-206.2 1693.2,-274 73.4,-17 115.4,-27.5 115.4,-27.5"
         style="fill:#2c84e1;fill-opacity:1;fill-rule:nonzero;stroke:none"
         id="path244" /><path
         d="m 39386,17992.9 c 0,0 -2818.8,-17.6 -4224.1,-526.6 0,0 248.7,-983.4 1366.4,-1861 129.9,-101.9 290,-157.6 455.1,-157.6 h 2402.6 2402.6 c 165.1,0 325.2,55.7 455.1,157.6 1117.6,877.6 1366.4,1861 1366.4,1861 -1405.3,509 -4224.1,526.6 -4224.1,526.6"
         style="fill:#231f20;fill-opacity:1;fill-rule:nonzero;stroke:none"
         id="path246" /><path
         d="M 35161.9,16489.6 V 4425.4 c 0,-293.9 312.3,-482.5 572.5,-345.7 l 388.1,204.2 c 174.7,91.8 284,272.8 284,470.1 v 9688.5 c 0,227.3 -72.5,448.7 -206.9,632 l -1037.7,1415.1"
         style="fill:#231f20;fill-opacity:1;fill-rule:nonzero;stroke:none"
         id="path248" /><path
         d="m 42572.4,15074.5 c -134.4,-183.3 -206.9,-404.7 -206.9,-632 V 4754 c 0,-197.3 109.3,-378.3 283.9,-470.1 l 388.2,-204.2 c 260.1,-136.8 572.5,51.8 572.5,345.7 v 12064.2 l -1037.7,-1415.1"
         style="fill:#231f20;fill-opacity:1;fill-rule:nonzero;stroke:none"
         id="path250" /><path
         d="m 43800.7,11737.4 h -8849.9 v 363.7 h 8849.9 v -363.7"
         style="fill:#2c84e1;fill-opacity:1;fill-rule:nonzero;stroke:none"
         id="path252" /><path
         d="m 36955.4,7556.4 -1859.7,-703.2 -128.6,340.2 1859.6,703.2 128.7,-340.2"
         style="fill:#2c84e1;fill-opacity:1;fill-rule:nonzero;stroke:none"
         id="path254" /><path
         d="m 41816.6,7556.4 1859.7,-703.2 128.6,340.2 -1859.7,703.2 -128.6,-340.2"
         style="fill:#2c84e1;fill-opacity:1;fill-rule:nonzero;stroke:none"
         id="path256" /><path
         d="m 42170,4155.8 c -131.8,105 -295.4,162.2 -464,162.2 h -2320 -2320 c -168.6,0 -332.2,-57.2 -464,-162.2 l -511.6,-407.6 h 3295.6 3295.6 l -511.6,407.6"
         style="fill:#231f20;fill-opacity:1;fill-rule:nonzero;stroke:none"
         id="path258" /><path
         d="m 41236.6,15027.1 h -3721.8 c -368.2,0 -666.7,-298.5 -666.7,-666.8 V 5510.5 c 0,-368.3 298.5,-666.8 666.7,-666.8 h 3721.8 c 368.3,0 666.8,298.5 666.8,666.8 v 8849.8 c 0,368.3 -298.5,666.8 -666.8,666.8"
         style="fill:#55abf9;fill-opacity:1;fill-rule:nonzero;stroke:none"
         id="path260" /><path
         d="m 40922.6,14380.2 h -3073.2 c -160.7,0 -291,-130.3 -291,-291 v -927.4 c 0,-160.7 130.3,-290.9 291,-290.9 h 3073.2 c 160.7,0 290.9,130.2 290.9,290.9 v 927.4 c 0,160.7 -130.2,291 -290.9,291"
         style="fill:#231f20;fill-opacity:1;fill-rule:nonzero;stroke:none"
         id="path262" /><path
         d="m 43267.2,18265 v 1546.4 l -1835.6,3685.4 c 0,0 -1146.6,557.6 -2055.9,557.6 -909.2,0 -2055.9,-557.6 -2055.9,-557.6 l -1835.6,-3685.4 v -1552.1 c 1472.5,409.5 3901.8,424.6 3901.8,424.6 0,0 2406.8,-15 3881.2,-418.9"
         style="fill:#55abf9;fill-opacity:1;fill-rule:nonzero;stroke:none"
         id="path264" /><path
         d="m 34887.2,23018.4 v -191.9 l 1648.7,254.6 44.2,373.2 c -543.3,-35.2 -1201.2,-169.9 -1540.9,-246 -88.9,-19.9 -152,-98.7 -152,-189.9"
         style="fill:#eaea28;fill-opacity:1;fill-rule:nonzero;stroke:none"
         id="path266" /><path
         d="m 43732.2,23217.3 c -358.4,79.3 -1010.5,209.7 -1540.6,239.4 l 44.5,-375.6 1648.7,-254.6 v 200.8 c 0,91.3 -63.4,170.3 -152.6,190"
         style="fill:#eaea28;fill-opacity:1;fill-rule:nonzero;stroke:none"
         id="path268" /><path
         d="m 37088.4,23847.1 -1443.6,-2693.1 935.3,2300.3 z"
         style="fill:#55abf9;fill-opacity:1;fill-rule:nonzero;stroke:none"
         id="path270" /><path
         d="m 41723.5,23847.1 1443.6,-2693.1 -975.5,2302.7 z"
         style="fill:#55abf9;fill-opacity:1;fill-rule:nonzero;stroke:none"
         id="path272" /><path
         d="m 37340.2,12164.7 c -77.3,0 -140,-62.7 -140,-140 V 5491.8 c 0,-77.3 62.7,-140 140,-140 77.3,0 140,62.7 140,140 v 6532.9 c 0,77.3 -62.7,140 -140,140"
         style="fill:#2c84e1;fill-opacity:1;fill-rule:nonzero;stroke:none"
         id="path274" /><path
         d="m 38022.1,12164.7 c -77.3,0 -140,-62.7 -140,-140 V 5491.8 c 0,-77.3 62.7,-140 140,-140 77.4,0 140,62.7 140,140 v 6532.9 c 0,77.3 -62.6,140 -140,140"
         style="fill:#2c84e1;fill-opacity:1;fill-rule:nonzero;stroke:none"
         id="path276" /><path
         d="m 38704.1,12164.7 c -77.4,0 -140,-62.7 -140,-140 V 5491.8 c 0,-77.3 62.6,-140 140,-140 77.3,0 140,62.7 140,140 v 6532.9 c 0,77.3 -62.7,140 -140,140"
         style="fill:#2c84e1;fill-opacity:1;fill-rule:nonzero;stroke:none"
         id="path278" /><path
         d="m 39386,12164.7 c -77.3,0 -140,-62.7 -140,-140 V 5491.8 c 0,-77.3 62.7,-140 140,-140 77.3,0 140,62.7 140,140 v 6532.9 c 0,77.3 -62.7,140 -140,140"
         style="fill:#2c84e1;fill-opacity:1;fill-rule:nonzero;stroke:none"
         id="path280" /><path
         d="m 40067.9,12164.7 c -77.3,0 -140,-62.7 -140,-140 V 5491.8 c 0,-77.3 62.7,-140 140,-140 77.3,0 140,62.7 140,140 v 6532.9 c 0,77.3 -62.7,140 -140,140"
         style="fill:#2c84e1;fill-opacity:1;fill-rule:nonzero;stroke:none"
         id="path282" /><path
         d="m 40749.8,12164.7 c -77.3,0 -140,-62.7 -140,-140 V 5491.8 c 0,-77.3 62.7,-140 140,-140 77.4,0 140,62.7 140,140 v 6532.9 c 0,77.3 -62.6,140 -140,140"
         style="fill:#2c84e1;fill-opacity:1;fill-rule:nonzero;stroke:none"
         id="path284" /><path
         d="m 41431.8,12164.7 c -77.4,0 -140,-62.7 -140,-140 V 5491.8 c 0,-77.3 62.6,-140 140,-140 77.3,0 140,62.7 140,140 v 6532.9 c 0,77.3 -62.7,140 -140,140"
         style="fill:#2c84e1;fill-opacity:1;fill-rule:nonzero;stroke:none"
         id="path286" /></g></g></svg>
